<svg width="24" height="24" viewBox="0 0 24 24" fill="none" xmlns="http://www.w3.org/2000/svg">
<path fill-rule="evenodd" clip-rule="evenodd" d="M11.1263 5.5C11.5146 4.83333 12.4854 4.83333 12.8737 5.5L19.8633 17.5C20.2516 18.1667 19.7663 19 18.9896 19H5.01037C4.23375 19 3.74835 18.1667 4.13667 17.5L11.1263 5.5ZM12 9C12.5523 9 13 9.44772 13 10V14C13 14.5523 12.5523 15 12 15C11.4477 15 11 14.5523 11 14V10C11 9.44772 11.4477 9 12 9ZM12 18C12.5523 18 13 17.5523 13 17C13 16.4477 12.5523 16 12 16C11.4477 16 11 16.4477 11 17C11 17.5523 11.4477 18 12 18Z" fill="#EF4C54"/>
</svg>
