<svg width="16" height="14" viewBox="0 0 16 14" fill="none" xmlns="http://www.w3.org/2000/svg">
<path fill-rule="evenodd" clip-rule="evenodd" d="M7.1263 0.5C7.51461 -0.166666 8.48539 -0.166667 8.8737 0.5L15.8633 12.5C16.2516 13.1667 15.7663 14 14.9896 14H1.01037C0.233746 14 -0.251645 13.1667 0.136667 12.5L7.1263 0.5ZM8 4C8.55229 4 9 4.44772 9 5V9C9 9.55228 8.55229 10 8 10C7.44772 10 7 9.55228 7 9V5C7 4.44772 7.44772 4 8 4ZM8 13C8.55229 13 9 12.5523 9 12C9 11.4477 8.55229 11 8 11C7.44772 11 7 11.4477 7 12C7 12.5523 7.44772 13 8 13Z" fill="#EF4C54"/>
</svg>
