<svg width="24" height="24" viewBox="0 0 24 24" fill="none" xmlns="http://www.w3.org/2000/svg">
<path d="M12 20C11.8259 20 11.6786 19.9375 11.558 19.8125L5.29018 13.5417C5.22321 13.4861 5.13114 13.3958 5.01395 13.2708C4.89676 13.1458 4.71094 12.9184 4.45647 12.5885C4.20201 12.2587 3.97433 11.9201 3.77344 11.5729C3.57254 11.2257 3.39342 10.8056 3.23605 10.3125C3.07868 9.81944 3 9.34028 3 8.875C3 7.34722 3.42522 6.15278 4.27567 5.29167C5.12612 4.43056 6.30134 4 7.80134 4C8.21652 4 8.64007 4.07465 9.07199 4.22396C9.50391 4.37326 9.90569 4.57465 10.2773 4.82813C10.649 5.0816 10.9688 5.31944 11.2366 5.54167C11.5045 5.76389 11.7589 6 12 6.25C12.2411 6 12.4955 5.76389 12.7634 5.54167C13.0312 5.31944 13.351 5.0816 13.7227 4.82813C14.0943 4.57465 14.4961 4.37326 14.928 4.22396C15.3599 4.07465 15.7835 4 16.1987 4C17.6987 4 18.8739 4.43056 19.7243 5.29167C20.5748 6.15278 21 7.34722 21 8.875C21 10.4097 20.2333 11.9722 18.6998 13.5625L12.442 19.8125C12.3214 19.9375 12.1741 20 12 20Z" fill="#EBEBEB"/>
</svg>
