<svg width="157" height="28" viewBox="0 0 157 28" fill="none" xmlns="http://www.w3.org/2000/svg">
<rect width="157" height="28" fill="#333333" fill-opacity="0.5"/>
<path d="M37.728 12.322H50.286V13.33H37.728V12.322ZM38.596 8.178H49.474V9.186H38.596V8.178ZM44.154 13.904H45.246V18.37C45.246 18.846 45.386 18.944 46.128 18.944C46.45 18.944 48.158 18.944 48.606 18.944C49.306 18.944 49.404 18.636 49.488 16.704C49.74 16.9 50.216 17.082 50.51 17.138C50.356 19.392 50.034 19.98 48.676 19.98C48.354 19.98 46.324 19.98 46.016 19.98C44.56 19.98 44.154 19.63 44.154 18.37V13.904ZM43.272 8.584H44.336C44.238 13.988 44.098 18.244 38.232 20.162C38.106 19.882 37.798 19.49 37.56 19.266C43.202 17.544 43.202 13.638 43.272 8.584ZM55.298 13.134H64.3V14.128H55.298V13.134ZM56.012 9.536H63.642V10.544H56.012V9.536ZM59.218 7.254H60.296V13.848H59.218V7.254ZM55.312 18.412C57.216 18.328 60.268 18.16 63.166 17.992V18.944C60.38 19.154 57.454 19.35 55.466 19.476L55.312 18.412ZM60.954 16.018L61.85 15.556C62.914 16.802 64.076 18.468 64.538 19.602L63.558 20.148C63.124 19.042 62.004 17.292 60.954 16.018ZM58.28 13.792L59.414 14.114C58.798 15.738 57.958 17.74 57.258 19.014L56.334 18.692C57.02 17.39 57.846 15.29 58.28 13.792ZM52.274 8.122L52.862 7.338C53.814 7.688 55.018 8.29 55.62 8.78L55.018 9.662C54.43 9.158 53.254 8.5 52.274 8.122ZM51.532 11.986L52.078 11.174C53.03 11.482 54.262 12.028 54.892 12.476L54.318 13.358C53.716 12.91 52.512 12.322 51.532 11.986ZM52.022 19.266C52.736 18.188 53.786 16.34 54.556 14.758L55.34 15.416C54.64 16.9 53.716 18.65 52.932 19.952L52.022 19.266ZM65.826 7.926H70.376V8.85H65.826V7.926ZM65.518 12.42H70.866V13.372H65.518V12.42ZM67.828 12.826H68.836V18.888C68.836 19.448 68.724 19.756 68.318 19.91C67.926 20.078 67.31 20.092 66.344 20.092C66.302 19.812 66.148 19.378 66.008 19.098C66.722 19.112 67.38 19.112 67.576 19.098C67.772 19.098 67.828 19.042 67.828 18.874V12.826ZM70.054 7.926H70.278L70.46 7.87L71.118 8.304C70.46 9.396 69.438 10.586 68.57 11.328C68.43 11.146 68.15 10.866 67.968 10.726C68.738 10.068 69.62 8.934 70.054 8.122V7.926ZM70.572 12.42H70.726L70.88 12.378L71.538 12.56C71.174 13.638 70.726 14.87 70.362 15.64L69.55 15.43C69.886 14.716 70.292 13.54 70.572 12.574V12.42ZM66.218 10.488L66.806 9.83C67.856 10.502 69.312 11.468 70.054 12.07L69.452 12.84C68.724 12.238 67.296 11.216 66.218 10.488ZM71.482 7.87H78.426V8.808H71.482V7.87ZM74.562 8.332L75.724 8.486C75.458 9.284 75.178 10.166 74.912 10.754L74.002 10.572C74.212 9.942 74.45 8.99 74.562 8.332ZM74.38 12.07H75.374V14.884C75.374 16.648 74.926 18.748 71.384 20.05C71.244 19.84 70.964 19.49 70.74 19.294C74.044 18.202 74.38 16.312 74.38 14.87V12.07ZM75.136 17.768L75.836 17.138C76.718 17.796 77.866 18.776 78.426 19.378L77.698 20.106C77.166 19.476 76.032 18.482 75.136 17.768ZM71.986 10.222H77.866V16.858H76.844V11.174H72.966V16.886H71.986V10.222ZM87.092 8.668H92.076V9.62H87.092V8.668ZM87.204 7.24L88.198 7.436C87.75 9.158 87.022 10.866 86.21 11.972C86.014 11.818 85.566 11.552 85.314 11.426C86.154 10.39 86.812 8.808 87.204 7.24ZM88.016 10.236L88.898 9.858C89.654 10.516 90.438 11.44 90.802 12.07L89.864 12.518C89.528 11.86 88.73 10.922 88.016 10.236ZM80.596 8.024H81.618V11.972H80.596V8.024ZM83.522 7.38H84.558V12.434H83.522V7.38ZM86.378 16.438H87.442V18.636C87.442 18.972 87.54 19.028 88.212 19.028C88.52 19.028 90.06 19.028 90.48 19.028C91.026 19.028 91.124 18.86 91.18 17.586C91.404 17.74 91.824 17.88 92.104 17.95C91.992 19.546 91.684 19.924 90.578 19.924C90.27 19.924 88.408 19.924 88.1 19.924C86.742 19.924 86.378 19.658 86.378 18.636V16.438ZM85.384 14.436H86.476V15.556C86.476 17.026 85.874 18.902 80.582 20.162C80.456 19.924 80.162 19.532 79.924 19.308C85.02 18.244 85.384 16.648 85.384 15.542V14.436ZM81.73 12.868H90.452V17.236H89.36V13.806H82.78V17.32H81.73V12.868ZM94.162 7.856H105.824V20.134H104.774V8.822H95.184V20.134H94.162V7.856ZM94.764 18.594H105.39V19.532H94.764V18.594ZM98.236 15.108L98.684 14.464C99.804 14.688 101.232 15.15 102.016 15.514L101.568 16.214C100.798 15.836 99.37 15.346 98.236 15.108ZM98.796 9.102L99.664 9.396C98.866 10.684 97.592 11.888 96.416 12.672C96.262 12.504 95.898 12.196 95.688 12.042C96.878 11.328 98.082 10.236 98.796 9.102ZM102.534 10.208H102.716L102.884 10.166L103.472 10.53C102.03 12.84 98.768 14.366 95.926 15.024C95.828 14.772 95.618 14.352 95.436 14.156C98.18 13.624 101.33 12.238 102.534 10.362V10.208ZM98.18 10.978C99.412 12.462 101.974 13.596 104.522 14.058C104.326 14.254 104.06 14.604 103.934 14.856C101.372 14.31 98.782 13.022 97.396 11.342L98.18 10.978ZM98.474 10.208H102.842V11.034H97.914L98.474 10.208ZM96.85 16.886L97.34 16.158C99.23 16.382 101.638 16.914 103.01 17.376L102.534 18.16C101.204 17.684 98.782 17.124 96.85 16.886ZM110.066 10.866H119.642V11.958H110.066V10.866ZM114.588 7.268H115.694V11.37H114.588V7.268ZM109.506 7.604H110.598V12.28C110.598 15.066 110.36 17.95 108.344 20.148C108.176 19.91 107.784 19.518 107.532 19.336C109.31 17.348 109.506 14.758 109.506 12.28V7.604ZM110.024 14.184H117.472V20.134H116.338V15.276H110.024V14.184Z" fill="white"/>
</svg>
