<svg width="375" height="243" viewBox="0 0 375 243" fill="none" xmlns="http://www.w3.org/2000/svg">
<circle cx="217" cy="98" r="43" stroke="#CCCCCC" stroke-width="2"/>
<circle cx="236" cy="87" r="3" fill="#CCCCCC"/>
<circle cx="198" cy="87" r="3" fill="#CCCCCC"/>
<path d="M207 98L227 98" stroke="#CCCCCC" stroke-width="2"/>
<path d="M162.678 102.361C150.5 106.236 136 104.236 129.678 93.3613C121.629 79.515 134.083 70.6013 141.5 75.2364C149.5 80.2356 144.499 91.7361 137.999 90.2361" stroke="#CCCCCC" stroke-width="2"/>
<path d="M163.5 108.736C156.5 114.57 135.4 122.736 107 108.736" stroke="#CCCCCC" stroke-width="2"/>
<path d="M167 115.236C163.833 120.903 153.5 132.436 137.5 133.236" stroke="#CCCCCC" stroke-width="2"/>
<path d="M263 127C262 133.167 255.8 146.3 239 149.5" stroke="#CCCCCC" stroke-width="2"/>
<path d="M270.001 124C270.001 131 265.5 142 258.5 146.5" stroke="#CCCCCC" stroke-width="2"/>
<path d="M271.499 67.7699C273.553 63.7345 263.971 50.5219 286.065 43.3308C295.407 54.3166 290.55 70.1177 273.508 69.5926C277.747 66.9118 283.448 58.9048 282.669 53.8056" stroke="#CCCCCC" stroke-width="2" stroke-linecap="round" stroke-linejoin="round"/>
<path d="M177.099 144.266C174.049 147.613 179.791 162.891 156.581 163.974C150.482 150.907 159.35 136.956 175.645 141.976C170.847 143.438 163.229 149.65 162.629 154.773" stroke="#CCCCCC" stroke-width="2" stroke-linecap="round" stroke-linejoin="round"/>
<path d="M94.3592 118.603C89.9983 117.384 86.7587 101.387 66.5102 112.783C68.2737 127.095 83.1925 134.215 94.3411 121.315C89.4985 122.621 79.7461 121.398 76.5193 117.373" stroke="#CCCCCC" stroke-width="2" stroke-linecap="round" stroke-linejoin="round"/>
<path d="M159.68 195.7H167.02V196.92H159.68V195.7ZM163.28 196.22H164.68V201.7H163.28V196.22ZM151.48 202.12H164.58V209.56H163.08V203.32H152.92V209.62H151.48V202.12ZM152.48 204.96H163.52V206.04H152.48V204.96ZM152.48 207.72H163.58V208.9H152.48V207.72ZM165.64 191.5L166.46 192.62C164.66 193.16 161.92 193.5 159.66 193.64C159.6 193.34 159.44 192.86 159.3 192.54C161.5 192.36 164.14 192 165.64 191.5ZM159.3 192.54H160.64V195.56C160.64 197.44 160.36 200.02 159 201.72C158.76 201.5 158.16 201.1 157.84 200.98C159.14 199.36 159.3 197.18 159.3 195.54V192.54ZM149.06 192.54H158.34V193.72H149.06V192.54ZM153.8 194.56H155.2V201.72H153.8V194.56ZM149.76 197.36C149.68 197.06 149.46 196.38 149.3 196C149.62 195.94 149.94 195.6 150.32 195.14C150.68 194.68 151.96 192.86 152.68 191.16L154.18 191.58C153.14 193.46 151.78 195.38 150.54 196.6V196.64C150.54 196.64 149.76 197.08 149.76 197.36ZM149.76 197.36V196.28L150.56 195.88H158.36V197.08H151.4C150.56 197.08 149.94 197.2 149.76 197.36ZM149.08 199.16C151.32 198.98 154.82 198.64 158.26 198.3V199.44C154.98 199.8 151.58 200.16 149.22 200.44L149.08 199.16ZM169.04 198.46H186.98V199.9H169.04V198.46ZM170.28 192.54H185.82V193.98H170.28V192.54ZM178.22 200.72H179.78V207.1C179.78 207.78 179.98 207.92 181.04 207.92C181.5 207.92 183.94 207.92 184.58 207.92C185.58 207.92 185.72 207.48 185.84 204.72C186.2 205 186.88 205.26 187.3 205.34C187.08 208.56 186.62 209.4 184.68 209.4C184.22 209.4 181.32 209.4 180.88 209.4C178.8 209.4 178.22 208.9 178.22 207.1V200.72ZM176.96 193.12H178.48C178.34 200.84 178.14 206.92 169.76 209.66C169.58 209.26 169.14 208.7 168.8 208.38C176.86 205.92 176.86 200.34 176.96 193.12ZM197.02 199.32L198.14 198.52C200.18 200.28 202.78 202.78 204.06 204.34L202.82 205.3C201.62 203.72 199.06 201.16 197.02 199.32ZM197.24 191.2H198.78V195.12C198.78 198.32 198.2 202.54 193.04 205.56C192.84 205.24 192.32 204.7 191.98 204.44C196.98 201.74 197.24 197.88 197.24 195.12V191.2ZM189.96 194.62H205.26V196.1H191.46V209.64H189.96V194.62ZM204.58 194.62H206.06V207.62C206.06 208.6 205.82 209.08 205.14 209.34C204.44 209.58 203.2 209.6 201.4 209.6C201.34 209.18 201.1 208.48 200.9 208.06C202.32 208.12 203.68 208.12 204.08 208.1C204.46 208.08 204.58 207.96 204.58 207.62V194.62ZM214.62 195.38L216.06 195.84C214.74 197.6 212.7 199.26 210.88 200.32C210.66 200.02 210.12 199.42 209.8 199.14C211.6 198.24 213.48 196.84 214.62 195.38ZM219.72 196.22L220.74 195.36C222.58 196.42 224.88 198.08 226.02 199.22L224.9 200.24C223.82 199.08 221.58 197.38 219.72 196.22ZM218.02 198.98C216.38 201.14 213.1 203.7 209.76 205.32C209.58 204.96 209.2 204.4 208.9 204.08C212.28 202.54 215.6 199.88 217.18 197.6H218.68C220.82 200.16 224.24 202.54 227.32 203.8C226.98 204.16 226.62 204.72 226.38 205.14C223.4 203.74 219.88 201.24 218.02 198.98ZM212.48 202.9H223.56V209.54H222.04V204.24H213.94V209.62H212.48V202.9ZM213.18 207.6H222.84V208.94H213.18V207.6ZM217.18 191.2H218.72V193.82H217.18V191.2ZM209.64 193.06H226.34V196.7H224.82V194.42H211.12V196.7H209.64V193.06Z" fill="#BBBBBB"/>
</svg>
