<svg width="16" height="19" viewBox="0 0 16 19" fill="none" xmlns="http://www.w3.org/2000/svg">
<path d="M9.72206 1.08591L9.9613 0.328342L9.72207 1.08592L13.994 2.43492C14.5538 2.61171 14.9344 3.131 14.9344 3.71806V11.1343C14.9344 11.6813 14.8058 12.2206 14.5592 12.7088C14.3125 13.1971 13.9545 13.6205 13.5142 13.9449L9.32911 17.0286C8.90557 17.3407 8.39328 17.5091 7.86719 17.5091C7.34109 17.5091 6.8288 17.3407 6.40527 17.0287L2.22022 13.9449C1.77986 13.6205 1.42191 13.1971 1.17522 12.7088C0.928524 12.2206 0.799998 11.6813 0.8 11.1343V3.71806C0.8 3.131 1.18057 2.61172 1.74039 2.43492C1.74039 2.43492 1.74039 2.43492 1.7404 2.43492L6.01231 1.08592L5.7714 0.323048L6.01231 1.08591C7.21951 0.704695 8.51486 0.704695 9.72206 1.08591Z" fill="#FFE457" stroke="#333333" stroke-width="1.6"/>
<path d="M4.81543 9.15503L6.8752 11.4437C6.8752 11.4437 10.3082 7.88357 11.6813 6.10352" stroke="#333333" stroke-width="1.6" stroke-linecap="round" stroke-linejoin="round"/>
</svg>
