<svg width="24" height="24" viewBox="0 0 24 24" fill="none" xmlns="http://www.w3.org/2000/svg">
<path fill-rule="evenodd" clip-rule="evenodd" d="M9.05452 10.4277H14.9455C14.6783 9.0446 13.4612 8 12 8C10.5388 8 9.32166 9.0446 9.05452 10.4277ZM7.03239 10.4277C7.31633 7.93581 9.4321 6 12 6C14.5679 6 16.6837 7.93581 16.9676 10.4277H17C17.5523 10.4277 18 10.8754 18 11.4277V17.9992C18 18.5514 17.5523 18.9992 17 18.9992H7C6.44772 18.9992 6 18.5514 6 17.9992V11.4277C6 10.8754 6.44772 10.4277 7 10.4277H7.03239Z" fill="#999999"/>
</svg>
