<svg width="24" height="24" viewBox="0 0 24 24" fill="none" xmlns="http://www.w3.org/2000/svg">
<path fill-rule="evenodd" clip-rule="evenodd" d="M12.1005 5C11.4107 5 10.7316 5.15551 10.1034 5.45288C9.47581 5.74999 8.91483 6.18106 8.44843 6.71408C7.98225 7.24686 7.61835 7.8724 7.37198 8.55218C7.15474 9.15154 7.0314 9.78596 7.00526 10.4277H7C6.44772 10.4277 6 10.8754 6 11.4277V17.9992C6 18.5514 6.44772 18.9992 7 18.9992H17C17.5523 18.9992 18 18.5514 18 17.9992V11.4277C18 10.8754 17.5523 10.4277 17 10.4277H9.00768C9.0322 10.0157 9.1151 9.61217 9.25229 9.23367C9.41805 8.77631 9.65823 8.36863 9.95359 8.03109C10.2487 7.69379 10.5918 7.43447 10.9592 7.26056C11.326 7.08692 11.7133 7 12.1005 7C12.4877 7 12.875 7.08692 13.2418 7.26056C13.6092 7.43447 13.9523 7.69378 14.2474 8.03109C14.6111 8.44672 15.2429 8.48884 15.6585 8.12516C16.0741 7.76148 16.1163 7.12971 15.7526 6.71408C15.2862 6.18106 14.7252 5.74999 14.0976 5.45288L13.6697 6.35672L14.0976 5.45288C13.4694 5.15551 12.7903 5 12.1005 5Z" fill="#999999"/>
</svg>
