<svg width="44" height="44" viewBox="0 0 44 44" fill="none" xmlns="http://www.w3.org/2000/svg">
<circle cx="22" cy="22" r="22" fill="url(#paint0_linear_0_1)"/>
<circle cx="22" cy="22" r="22" fill="url(#paint1_linear_0_1)"/>
<circle cx="22" cy="22" r="22" fill="url(#paint2_linear_0_1)"/>
<rect x="17.0605" y="9.55078" width="5" height="7" rx="2.5" transform="rotate(-9.0717 17.0605 9.55078)" fill="#FFE457"/>
<rect x="19" y="26.1035" width="7" height="10" rx="3.5" transform="rotate(-9.0717 19 26.1035)" fill="#FFE457"/>
<g filter="url(#filter0_d_0_1)">
<path d="M12.9486 21.8536C12.2084 17.2179 15.3664 12.8599 20.0021 12.1198C24.6378 11.3796 28.9958 14.5375 29.736 19.1732L30.7487 25.516C31.0166 27.1941 29.8735 28.7716 28.1954 29.0396L17.4849 30.7497C15.8068 31.0176 14.2293 29.8745 13.9613 28.1964L12.9486 21.8536Z" fill="url(#paint3_radial_0_1)"/>
</g>
<defs>
<filter id="filter0_d_0_1" x="10.8408" y="12.0117" width="21.9473" height="22.7773" filterUnits="userSpaceOnUse" color-interpolation-filters="sRGB">
<feFlood flood-opacity="0" result="BackgroundImageFix"/>
<feColorMatrix in="SourceAlpha" type="matrix" values="0 0 0 0 0 0 0 0 0 0 0 0 0 0 0 0 0 0 127 0" result="hardAlpha"/>
<feOffset dy="2"/>
<feGaussianBlur stdDeviation="1"/>
<feComposite in2="hardAlpha" operator="out"/>
<feColorMatrix type="matrix" values="0 0 0 0 0.895833 0 0 0 0 0.645 0 0 0 0 0 0 0 0 1 0"/>
<feBlend mode="normal" in2="BackgroundImageFix" result="effect1_dropShadow_0_1"/>
<feBlend mode="normal" in="SourceGraphic" in2="effect1_dropShadow_0_1" result="shape"/>
</filter>
<linearGradient id="paint0_linear_0_1" x1="22" y1="0" x2="22" y2="44" gradientUnits="userSpaceOnUse">
<stop stop-color="#FFCE0F"/>
<stop offset="1" stop-color="#FBBD06"/>
</linearGradient>
<linearGradient id="paint1_linear_0_1" x1="22" y1="0" x2="22" y2="44" gradientUnits="userSpaceOnUse">
<stop stop-color="white" stop-opacity="0.45"/>
<stop offset="0.369893" stop-color="white" stop-opacity="0"/>
<stop offset="0.882186" stop-color="white" stop-opacity="0.17"/>
</linearGradient>
<linearGradient id="paint2_linear_0_1" x1="22" y1="0" x2="22" y2="44" gradientUnits="userSpaceOnUse">
<stop offset="0.8775" stop-opacity="0"/>
<stop offset="1" stop-opacity="0.18"/>
</linearGradient>
<radialGradient id="paint3_radial_0_1" cx="0" cy="0" r="1" gradientUnits="userSpaceOnUse" gradientTransform="translate(20.0414 14.6888) rotate(79.5711) scale(15.4612 14.6033)">
<stop stop-color="#FFFBEA"/>
<stop offset="1" stop-color="#FFF7D7"/>
</radialGradient>
</defs>
</svg>
