<svg width="44" height="44" viewBox="0 0 44 44" fill="none" xmlns="http://www.w3.org/2000/svg">
<circle cx="22" cy="22" r="22" fill="url(#paint0_linear_0_1)"/>
<circle cx="22" cy="22" r="22" fill="url(#paint1_linear_0_1)"/>
<circle cx="22" cy="22" r="22" fill="url(#paint2_linear_0_1)"/>
<g filter="url(#filter0_d_0_1)">
<path d="M11 29.279V26.1674C11 24.4506 12.402 23.0558 14.1275 23.0558H18.8725V20.588C17.0392 19.515 15.7451 17.4764 15.7451 15.2232C15.7451 11.7897 18.549 9 22 9C25.451 9 28.2549 11.7897 28.2549 15.2232C28.2549 17.5837 26.9608 19.515 25.1274 20.588V23.0558H29.8725C31.598 23.0558 33 24.4506 33 26.1674V29.279H11ZM28.2549 34H15.7451V30.8884H28.3627V34H28.2549Z" fill="url(#paint3_radial_0_1)" shape-rendering="crispEdges"/>
</g>
<defs>
<filter id="filter0_d_0_1" x="9" y="9" width="26" height="29" filterUnits="userSpaceOnUse" color-interpolation-filters="sRGB">
<feFlood flood-opacity="0" result="BackgroundImageFix"/>
<feColorMatrix in="SourceAlpha" type="matrix" values="0 0 0 0 0 0 0 0 0 0 0 0 0 0 0 0 0 0 127 0" result="hardAlpha"/>
<feOffset dy="2"/>
<feGaussianBlur stdDeviation="1"/>
<feComposite in2="hardAlpha" operator="out"/>
<feColorMatrix type="matrix" values="0 0 0 0 0.0354941 0 0 0 0 0.500518 0 0 0 0 0.798611 0 0 0 1 0"/>
<feBlend mode="normal" in2="BackgroundImageFix" result="effect1_dropShadow_0_1"/>
<feBlend mode="normal" in="SourceGraphic" in2="effect1_dropShadow_0_1" result="shape"/>
</filter>
<linearGradient id="paint0_linear_0_1" x1="22" y1="0" x2="22" y2="44" gradientUnits="userSpaceOnUse">
<stop stop-color="#3CA9F7"/>
<stop offset="1" stop-color="#0D98ED"/>
</linearGradient>
<linearGradient id="paint1_linear_0_1" x1="22" y1="0" x2="22" y2="44" gradientUnits="userSpaceOnUse">
<stop stop-color="white" stop-opacity="0.45"/>
<stop offset="0.369893" stop-color="white" stop-opacity="0"/>
<stop offset="0.882186" stop-color="white" stop-opacity="0.17"/>
</linearGradient>
<linearGradient id="paint2_linear_0_1" x1="22" y1="0" x2="22" y2="44" gradientUnits="userSpaceOnUse">
<stop offset="0.8775" stop-opacity="0"/>
<stop offset="1" stop-opacity="0.18"/>
</linearGradient>
<radialGradient id="paint3_radial_0_1" cx="0" cy="0" r="1" gradientUnits="userSpaceOnUse" gradientTransform="translate(21.5261 12.5321) rotate(88.7354) scale(21.4731 18.899)">
<stop stop-color="#FFFBEA"/>
<stop offset="1" stop-color="white" stop-opacity="0.67"/>
</radialGradient>
</defs>
</svg>
