<svg width="44" height="44" viewBox="0 0 44 44" fill="none" xmlns="http://www.w3.org/2000/svg">
<circle cx="22" cy="22" r="22" fill="url(#paint0_linear_0_1)"/>
<circle cx="22" cy="22" r="22" fill="url(#paint1_linear_0_1)"/>
<circle cx="22" cy="22" r="22" fill="url(#paint2_linear_0_1)"/>
<g filter="url(#filter0_d_0_1)">
<path d="M32.7209 21.5809L22.8829 28.7896C22.7109 28.9222 22.4924 29 22.2552 29C21.7066 29 21.2603 28.5838 21.2231 28.0577V24.5037H18.48C15.072 24.5037 11.9895 25.8027 9.6974 27.9251C9.62301 27.98 9.53467 28.0166 9.43239 28.0166C9.19527 28.0166 9 27.829 9 27.5958C9 27.5729 9.00465 27.55 9.00465 27.5272C10.153 21.9743 15.2441 17.7616 21.2231 17.5283V13.9423C21.2649 13.4162 21.7066 13 22.2552 13C22.4784 13 22.6923 13.0732 22.8597 13.1967L32.7302 20.4282C32.8929 20.57 32.9999 20.7759 32.9999 21C33.0045 21.2333 32.8929 21.4391 32.7209 21.5809Z" fill="url(#paint3_radial_0_1)" shape-rendering="crispEdges"/>
</g>
<defs>
<filter id="filter0_d_0_1" x="7" y="13" width="28" height="20" filterUnits="userSpaceOnUse" color-interpolation-filters="sRGB">
<feFlood flood-opacity="0" result="BackgroundImageFix"/>
<feColorMatrix in="SourceAlpha" type="matrix" values="0 0 0 0 0 0 0 0 0 0 0 0 0 0 0 0 0 0 127 0" result="hardAlpha"/>
<feOffset dy="2"/>
<feGaussianBlur stdDeviation="1"/>
<feComposite in2="hardAlpha" operator="out"/>
<feColorMatrix type="matrix" values="0 0 0 0 0.693055 0 0 0 0 0.340519 0 0 0 0 0 0 0 0 0.62 0"/>
<feBlend mode="normal" in2="BackgroundImageFix" result="effect1_dropShadow_0_1"/>
<feBlend mode="normal" in="SourceGraphic" in2="effect1_dropShadow_0_1" result="shape"/>
</filter>
<linearGradient id="paint0_linear_0_1" x1="22" y1="0" x2="22" y2="44" gradientUnits="userSpaceOnUse">
<stop stop-color="#FB8A06"/>
<stop offset="1" stop-color="#FF5C00"/>
</linearGradient>
<linearGradient id="paint1_linear_0_1" x1="22" y1="0" x2="22" y2="44" gradientUnits="userSpaceOnUse">
<stop stop-color="white" stop-opacity="0.45"/>
<stop offset="0.369893" stop-color="white" stop-opacity="0"/>
<stop offset="0.882186" stop-color="white" stop-opacity="0.17"/>
</linearGradient>
<linearGradient id="paint2_linear_0_1" x1="22" y1="0" x2="22" y2="44" gradientUnits="userSpaceOnUse">
<stop offset="0.8775" stop-opacity="0"/>
<stop offset="1" stop-opacity="0.18"/>
</linearGradient>
<radialGradient id="paint3_radial_0_1" cx="0" cy="0" r="1" gradientUnits="userSpaceOnUse" gradientTransform="translate(20.483 15.2605) rotate(87.845) scale(13.7492 20.6076)">
<stop stop-color="#FFFBEA"/>
<stop offset="1" stop-color="#FFF7D7" stop-opacity="0.67"/>
</radialGradient>
</defs>
</svg>
