<svg width="44" height="44" viewBox="0 0 44 44" fill="none" xmlns="http://www.w3.org/2000/svg">
<circle cx="22" cy="22" r="22" fill="url(#paint0_linear_635_8266)"/>
<circle cx="22" cy="22" r="22" fill="url(#paint1_linear_635_8266)"/>
<circle cx="22" cy="22" r="22" fill="url(#paint2_linear_635_8266)"/>
<g filter="url(#filter0_d_635_8266)">
<path d="M9 22C9 16.4772 13.4772 12 19 12H24C29.5228 12 34 16.4772 34 22V31C34 31.5523 33.5523 32 33 32H19C13.4772 32 9 27.5228 9 22Z" fill="url(#paint3_radial_635_8266)" shape-rendering="crispEdges"/>
</g>
<circle cx="15.5" cy="21.5" r="1.5" fill="white"/>
<circle cx="21.5" cy="21.5" r="1.5" fill="white"/>
<circle cx="27.5" cy="21.5" r="1.5" fill="white"/>
<defs>
<filter id="filter0_d_635_8266" x="7" y="12" width="29" height="24" filterUnits="userSpaceOnUse" color-interpolation-filters="sRGB">
<feFlood flood-opacity="0" result="BackgroundImageFix"/>
<feColorMatrix in="SourceAlpha" type="matrix" values="0 0 0 0 0 0 0 0 0 0 0 0 0 0 0 0 0 0 127 0" result="hardAlpha"/>
<feOffset dy="2"/>
<feGaussianBlur stdDeviation="1"/>
<feComposite in2="hardAlpha" operator="out"/>
<feColorMatrix type="matrix" values="0 0 0 0 0.537906 0 0 0 0 0.1787 0 0 0 0 0.706944 0 0 0 0.62 0"/>
<feBlend mode="normal" in2="BackgroundImageFix" result="effect1_dropShadow_635_8266"/>
<feBlend mode="normal" in="SourceGraphic" in2="effect1_dropShadow_635_8266" result="shape"/>
</filter>
<linearGradient id="paint0_linear_635_8266" x1="22" y1="0" x2="22" y2="44" gradientUnits="userSpaceOnUse">
<stop stop-color="#CE67FF"/>
<stop offset="1" stop-color="#BF34CB"/>
</linearGradient>
<linearGradient id="paint1_linear_635_8266" x1="22" y1="0" x2="22" y2="44" gradientUnits="userSpaceOnUse">
<stop stop-color="white" stop-opacity="0.45"/>
<stop offset="0.369893" stop-color="white" stop-opacity="0"/>
<stop offset="0.882186" stop-color="white" stop-opacity="0.17"/>
</linearGradient>
<linearGradient id="paint2_linear_635_8266" x1="22" y1="0" x2="22" y2="44" gradientUnits="userSpaceOnUse">
<stop offset="0.8775" stop-opacity="0"/>
<stop offset="1" stop-opacity="0.18"/>
</linearGradient>
<radialGradient id="paint3_radial_635_8266" cx="0" cy="0" r="1" gradientUnits="userSpaceOnUse" gradientTransform="translate(20.9615 14.8257) rotate(88.2039) scale(17.1828 21.4709)">
<stop stop-color="#FBECFF"/>
<stop offset="1" stop-color="#F5D7F9" stop-opacity="0.67"/>
</radialGradient>
</defs>
</svg>
