<svg width="44" height="44" viewBox="0 0 44 44" fill="none" xmlns="http://www.w3.org/2000/svg">
<circle cx="22" cy="22" r="22" fill="url(#paint0_linear_891_7805)"/>
<circle cx="22" cy="22" r="22" fill="url(#paint1_linear_891_7805)"/>
<circle cx="22" cy="22" r="22" fill="url(#paint2_linear_891_7805)"/>
<g filter="url(#filter0_d_891_7805)">
<path fill-rule="evenodd" clip-rule="evenodd" d="M35 14C35 15 34.6481 16.3467 33.9888 17.3334C33.3295 18.3201 32.3925 19.0891 31.2961 19.5433C30.2223 19.988 29.043 20.1112 27.9014 19.8986L20.8986 26.9014C21.1112 28.043 20.988 29.2223 20.5433 30.2961C20.0891 31.3925 19.3201 32.3295 18.3334 32.9888C17.3467 33.6481 16.1867 34 15 34C14.6245 33.6203 14.9226 33.0714 15.2943 32.3869C15.9125 31.2483 16.7345 29.7345 15 28C13.2642 26.2642 11.7451 27.0887 10.6057 27.7071C9.922 28.0782 9.37502 28.375 9 28C9 27 9.35189 25.6533 10.0112 24.6666C10.6705 23.6799 11.6075 22.9109 12.7039 22.4567C13.7777 22.012 14.957 21.8888 16.0986 22.1014L23.1014 15.0986C22.8888 13.957 23.012 12.7777 23.4567 11.7039C23.9108 10.6075 24.6799 9.67047 25.6666 9.01118C26.6533 8.35189 27.8133 8 29 8C29.3755 8.37968 29.0774 8.92859 28.7057 9.61313C28.0875 10.7517 27.2655 12.2655 29 14C30.7358 15.7358 32.2549 14.9113 33.3943 14.2929C34.078 13.9218 34.625 13.625 35 14Z" fill="url(#paint3_radial_891_7805)" shape-rendering="crispEdges"/>
</g>
<defs>
<filter id="filter0_d_891_7805" x="7" y="8" width="30" height="30" filterUnits="userSpaceOnUse" color-interpolation-filters="sRGB">
<feFlood flood-opacity="0" result="BackgroundImageFix"/>
<feColorMatrix in="SourceAlpha" type="matrix" values="0 0 0 0 0 0 0 0 0 0 0 0 0 0 0 0 0 0 127 0" result="hardAlpha"/>
<feOffset dy="2"/>
<feGaussianBlur stdDeviation="1"/>
<feComposite in2="hardAlpha" operator="out"/>
<feColorMatrix type="matrix" values="0 0 0 0 0.693055 0 0 0 0 0 0 0 0 0 0.207917 0 0 0 0.62 0"/>
<feBlend mode="normal" in2="BackgroundImageFix" result="effect1_dropShadow_891_7805"/>
<feBlend mode="normal" in="SourceGraphic" in2="effect1_dropShadow_891_7805" result="shape"/>
</filter>
<linearGradient id="paint0_linear_891_7805" x1="22" y1="0" x2="22" y2="44" gradientUnits="userSpaceOnUse">
<stop stop-color="#FF5A8B"/>
<stop offset="1.0001" stop-color="#FF1A27"/>
</linearGradient>
<linearGradient id="paint1_linear_891_7805" x1="22" y1="0" x2="22" y2="44" gradientUnits="userSpaceOnUse">
<stop stop-color="white" stop-opacity="0.45"/>
<stop offset="0.369893" stop-color="white" stop-opacity="0"/>
<stop offset="0.882186" stop-color="white" stop-opacity="0.17"/>
</linearGradient>
<linearGradient id="paint2_linear_891_7805" x1="22" y1="0" x2="22" y2="44" gradientUnits="userSpaceOnUse">
<stop offset="0.8775" stop-opacity="0"/>
<stop offset="1" stop-opacity="0.18"/>
</linearGradient>
<radialGradient id="paint3_radial_891_7805" cx="0" cy="0" r="1" gradientUnits="userSpaceOnUse" gradientTransform="translate(21.4399 11.6734) rotate(88.563) scale(22.3336 22.3336)">
<stop stop-color="#FFEAF4"/>
<stop offset="1" stop-color="#FFD7EA" stop-opacity="0.67"/>
</radialGradient>
</defs>
</svg>
