<svg width="24" height="24" viewBox="0 0 24 24" fill="none" xmlns="http://www.w3.org/2000/svg">
<rect x="2.8" y="0.8" width="7.4" height="7.4" rx="2.2" stroke="#333333" stroke-width="1.6"/>
<rect x="13" y="2" width="9" height="1.6" rx="0.8" fill="#333333"/>
<rect x="13" y="6" width="9" height="1.6" rx="0.8" fill="#333333"/>
<path d="M5.91 16.34H11.43V16.98H5.91V16.34ZM6.27 17.85H10.69V18.5H6.95V21.9H6.27V17.85ZM10.31 17.85H11.02V21.09C11.02 21.44 10.96 21.63 10.73 21.75C10.49 21.87 10.13 21.87 9.6 21.87C9.57 21.67 9.49 21.4 9.4 21.21C9.78 21.22 10.07 21.22 10.18 21.22C10.29 21.22 10.31 21.18 10.31 21.08V17.85ZM8.24 16.52H8.94V22.79H8.24V16.52ZM4.62 16.2H5.3V18.41C5.3 19.97 5.1 21.61 3.48 22.8C3.36 22.66 3.12 22.43 2.95 22.32C4.46 21.23 4.62 19.78 4.62 18.41V16.2ZM3.01 16.74H3.68V19.93H3.01V16.74ZM3.87 14.39H6.89V14.94H3.87V14.39ZM7.69 14.39H11.43V14.94H7.69V14.39ZM4.05 13.56L4.74 13.73C4.37 14.68 3.72 15.58 3.08 16.15C2.93 16.04 2.63 15.87 2.44 15.78C3.12 15.25 3.72 14.42 4.05 13.56ZM7.92 13.56L8.64 13.73C8.35 14.63 7.81 15.49 7.24 16.05C7.1 15.93 6.8 15.72 6.62 15.62C7.19 15.12 7.67 14.35 7.92 13.56ZM4.57 14.77L5.21 14.57C5.47 14.95 5.75 15.48 5.86 15.82L5.2 16.06C5.09 15.71 4.82 15.17 4.57 14.77ZM8.71 14.82L9.32 14.56C9.64 14.92 10.02 15.42 10.18 15.77L9.54 16.06C9.39 15.72 9.04 15.2 8.71 14.82ZM15.2 17.11H21.5V17.77H15.2V17.11ZM16.36 14.99H21.08V15.64H16.36V14.99ZM18.03 13.64H18.78V17.4H18.03V13.64ZM16.46 13.91L17.17 14.06C16.89 15.05 16.41 16.03 15.89 16.66C15.75 16.55 15.44 16.35 15.26 16.27C15.8 15.68 16.21 14.8 16.46 13.91ZM18.78 17.45H19.52V20.09C19.52 20.34 19.56 20.37 19.81 20.37C19.91 20.37 20.47 20.37 20.61 20.37C20.85 20.37 20.9 20.24 20.92 19.19C21.07 19.32 21.38 19.43 21.59 19.49C21.51 20.76 21.32 21.08 20.69 21.08C20.53 21.08 19.85 21.08 19.71 21.08C18.96 21.08 18.78 20.85 18.78 20.1V17.45ZM17.03 17.47H17.78C17.62 19.21 17.18 20.47 15.39 21.17C15.3 20.98 15.09 20.71 14.93 20.57C16.55 20 16.9 18.93 17.03 17.47ZM12.6 14.35L13.17 13.94C13.77 14.41 14.45 15.09 14.77 15.57L14.16 16.03C13.86 15.54 13.19 14.84 12.6 14.35ZM14.51 17.44V21.3H13.78V18.14H12.55V17.44H14.51ZM14.44 20.99C14.75 20.99 14.98 21.25 15.48 21.55C16.11 21.92 16.95 21.98 18.01 21.98C19.15 21.98 20.67 21.91 21.66 21.8C21.57 22 21.45 22.37 21.44 22.58C20.66 22.63 18.97 22.69 18 22.69C16.83 22.69 16 22.58 15.35 22.2C14.95 21.96 14.65 21.67 14.43 21.67C14.05 21.67 13.51 22.18 12.95 22.8L12.45 22.16C13.14 21.51 13.88 20.99 14.44 20.99Z" fill="#333333"/>
</svg>
