<svg width="54" height="54" viewBox="0 0 54 54" fill="none" xmlns="http://www.w3.org/2000/svg">
<rect width="54" height="54" rx="13" fill="url(#paint0_linear_1_2275)"/>
<rect width="54" height="54" rx="13" fill="url(#paint1_linear_1_2275)"/>
<rect width="54" height="54" rx="13" fill="url(#paint2_linear_1_2275)"/>
<g filter="url(#filter0_d_1_2275)">
<circle cx="27" cy="27" r="14" transform="rotate(-90 27 27)" fill="url(#paint3_radial_1_2275)" shape-rendering="crispEdges"/>
</g>
<path d="M25.4695 27.7719V31H23V23H25.4991L27.732 26.2281C28.0672 26.7053 28.3235 27.1076 28.5009 27.4351H28.5453V26.0877V23H31V31H28.4861L26.1941 27.6316L25.5287 26.6772H25.4843L25.4695 27.7719Z" fill="#5DDD8D"/>
<defs>
<filter id="filter0_d_1_2275" x="11" y="13" width="32" height="32" filterUnits="userSpaceOnUse" color-interpolation-filters="sRGB">
<feFlood flood-opacity="0" result="BackgroundImageFix"/>
<feColorMatrix in="SourceAlpha" type="matrix" values="0 0 0 0 0 0 0 0 0 0 0 0 0 0 0 0 0 0 127 0" result="hardAlpha"/>
<feOffset dy="2"/>
<feGaussianBlur stdDeviation="1"/>
<feComposite in2="hardAlpha" operator="out"/>
<feColorMatrix type="matrix" values="0 0 0 0 0.225203 0 0 0 0 0.754167 0 0 0 0 0.462325 0 0 0 1 0"/>
<feBlend mode="normal" in2="BackgroundImageFix" result="effect1_dropShadow_1_2275"/>
<feBlend mode="normal" in="SourceGraphic" in2="effect1_dropShadow_1_2275" result="shape"/>
</filter>
<linearGradient id="paint0_linear_1_2275" x1="27" y1="0" x2="27" y2="54" gradientUnits="userSpaceOnUse">
<stop stop-color="#45D063"/>
<stop offset="1" stop-color="#12C444"/>
</linearGradient>
<linearGradient id="paint1_linear_1_2275" x1="27" y1="0" x2="27" y2="54" gradientUnits="userSpaceOnUse">
<stop stop-color="white" stop-opacity="0.45"/>
<stop offset="0.369893" stop-color="white" stop-opacity="0"/>
<stop offset="0.882186" stop-color="white" stop-opacity="0.17"/>
</linearGradient>
<linearGradient id="paint2_linear_1_2275" x1="27" y1="0" x2="27" y2="54" gradientUnits="userSpaceOnUse">
<stop offset="0.8775" stop-opacity="0"/>
<stop offset="1" stop-opacity="0.18"/>
</linearGradient>
<radialGradient id="paint3_radial_1_2275" cx="0" cy="0" r="1" gradientUnits="userSpaceOnUse" gradientTransform="translate(26.3968 16.9559) rotate(88.563) scale(24.0516)">
<stop stop-color="#FFFBEA"/>
<stop offset="1" stop-color="#FFF7D7" stop-opacity="0.67"/>
</radialGradient>
</defs>
</svg>
