<svg width="24" height="24" viewBox="0 0 24 24" fill="none" xmlns="http://www.w3.org/2000/svg">
<g clip-path="url(#clip0_627_5653)">
<path d="M11.9998 15.2008C13.7671 15.2008 15.1998 13.7681 15.1998 12.0008C15.1998 10.2335 13.7671 8.80078 11.9998 8.80078C10.2325 8.80078 8.7998 10.2335 8.7998 12.0008C8.7998 13.7681 10.2325 15.2008 11.9998 15.2008Z" fill="white"/>
<path d="M9 2L7.17 4H4C2.895 4 2 4.895 2 6V18C2 19.105 2.895 20 4 20H20C21.105 20 22 19.105 22 18V6C22 4.895 21.105 4 20 4H16.83L15 2H9ZM12 17C9.24 17 7 14.76 7 12C7 9.24 9.24 7 12 7C14.76 7 17 9.24 17 12C17 14.76 14.76 17 12 17Z" fill="white"/>
</g>
<defs>
<clipPath id="clip0_627_5653">
<rect width="24" height="24" fill="white"/>
</clipPath>
</defs>
</svg>
