<svg width="24" height="24" viewBox="0 0 24 24" fill="none" xmlns="http://www.w3.org/2000/svg">
<line y1="-0.8" x2="3.4102" y2="-0.8" transform="matrix(0.715553 0.698558 -0.715553 0.698558 15 7)" stroke="#999999" stroke-width="1.6"/>
<path d="M12 5.17773H5.26534C4.56651 5.17773 4 5.74425 4 6.44308V18.7359C4 19.4347 4.56651 20.0012 5.26534 20.0012H17.9188C18.6176 20.0012 19.1841 19.4347 19.1841 18.7359L19.1841 12" stroke="#999999" stroke-width="1.6" stroke-linecap="round"/>
<path d="M16.5784 4.48214C16.8512 4.21586 17.2934 4.21586 17.5661 4.48214L19.5066 6.37653C19.7794 6.64281 19.7794 7.07453 19.5066 7.34081L12.4509 14.229L9.52266 14.229L9.52266 11.3703L16.5784 4.48214Z" stroke="#999999" stroke-width="1.6" stroke-linejoin="round"/>
</svg>
