<svg width="24" height="24" viewBox="0 0 24 24" fill="none" xmlns="http://www.w3.org/2000/svg">
<path d="M13.8735 4H9.86239C9.86239 5.43989 9.06017 7.9494 5.85128 6.46837L4 9.55384C4.51424 9.86239 5.54273 10.2944 5.54273 12.0222" stroke="#333333" stroke-width="1.5" stroke-linecap="round" stroke-linejoin="round"/>
<path d="M10.1714 4H14.1825C14.1825 5.43989 14.9848 7.9494 18.1936 6.46837L20.0449 9.55384C19.5307 9.86239 18.5022 10.2944 18.5022 12.0222" stroke="#333333" stroke-width="1.5" stroke-linecap="round" stroke-linejoin="round"/>
<path d="M13.8735 20.0449L9.86239 20.0449C9.86239 18.605 9.06017 16.0955 5.85128 17.5765L4 14.4911C4.51424 14.1825 5.54273 13.7506 5.54273 12.0227" stroke="#333333" stroke-width="1.5" stroke-linecap="round" stroke-linejoin="round"/>
<path d="M10.1714 20.0449L14.1825 20.0449C14.1825 18.605 14.9848 16.0955 18.1936 17.5765L20.0449 14.4911C19.5307 14.1825 18.5022 13.7506 18.5022 12.0227" stroke="#333333" stroke-width="1.5" stroke-linecap="round" stroke-linejoin="round"/>
<circle cx="12.0219" cy="12.0229" r="2.53263" stroke="#333333" stroke-width="1.5"/>
</svg>
