<svg width="24" height="24" viewBox="0 0 24 24" fill="none" xmlns="http://www.w3.org/2000/svg">
<path d="M13.7221 4.08591L13.9613 3.32834L13.7221 4.08592L17.994 5.43492C18.5538 5.61171 18.9344 6.131 18.9344 6.71806V14.1343C18.9344 14.6813 18.8058 15.2206 18.5592 15.7088C18.3125 16.1971 17.9545 16.6205 17.5142 16.9449L13.3291 20.0286C12.9056 20.3407 12.3933 20.5091 11.8672 20.5091C11.3411 20.5091 10.8288 20.3407 10.4053 20.0287L6.22022 16.9449C5.77986 16.6205 5.42191 16.1971 5.17522 15.7088C4.92852 15.2206 4.8 14.6813 4.8 14.1343V6.71806C4.8 6.131 5.18057 5.61172 5.74039 5.43492C5.74039 5.43492 5.74039 5.43492 5.7404 5.43492L10.0123 4.08592L9.7714 3.32305L10.0123 4.08591C11.2195 3.7047 12.5149 3.7047 13.7221 4.08591Z" stroke="#333333" stroke-width="1.6"/>
<path d="M8.81543 12.155L10.8752 14.4437C10.8752 14.4437 14.3082 10.8836 15.6813 9.10352" stroke="#333333" stroke-width="1.6" stroke-linecap="round" stroke-linejoin="round"/>
</svg>
