<svg width="291" height="300" viewBox="0 0 291 300" fill="none" xmlns="http://www.w3.org/2000/svg">
<rect x="0.5" y="0.5" width="290" height="299" rx="3.5" fill="#EEEEEE" stroke="#999999" stroke-dasharray="4 4"/>
<path d="M149.75 139C149.562 139 149.375 138.925 149.225 138.775L146 135.55L142.775 138.775C142.475 139.075 142.025 139.075 141.725 138.775C141.425 138.475 141.425 138.025 141.725 137.725L145.475 133.975C145.775 133.675 146.225 133.675 146.525 133.975L150.275 137.725C150.575 138.025 150.575 138.475 150.275 138.775C150.125 138.925 149.938 139 149.75 139ZM146 146.5C145.587 146.5 145.25 146.163 145.25 145.75V134.875C145.25 134.462 145.587 134.125 146 134.125C146.413 134.125 146.75 134.462 146.75 134.875V145.75C146.75 146.163 146.413 146.5 146 146.5ZM152 142H150.5C150.087 142 149.75 141.663 149.75 141.25C149.75 140.837 150.087 140.5 150.5 140.5H152C154.062 140.5 155.75 138.812 155.75 136.75C155.75 134.95 154.4 133.338 152.6 133.038C152.262 133 152 132.7 151.963 132.362C151.663 129.325 149.075 127 146 127C142.925 127 140.338 129.325 140.038 132.4C140 132.737 139.737 133 139.4 133.075C137.6 133.338 136.25 134.95 136.25 136.75C136.25 138.812 137.938 140.5 140 140.5H141.5C141.912 140.5 142.25 140.837 142.25 141.25C142.25 141.663 141.912 142 141.5 142H140C137.113 142 134.75 139.637 134.75 136.75C134.75 134.387 136.363 132.325 138.613 131.688C139.25 128.125 142.325 125.5 146 125.5C149.675 125.5 152.75 128.125 153.388 131.688C155.638 132.325 157.25 134.387 157.25 136.75C157.25 139.637 154.888 142 152 142Z" fill="#333333"/>
<path d="M121.52 166.744H128.096V167.944H121.52V166.744ZM114.816 174.328H129.184V175.528H114.816V174.328ZM120.832 161.8H122.096V174.968H120.832V161.8ZM134.24 161.624L135.376 161.976C134.32 164.696 132.688 167.4 130.944 169.192C130.832 168.92 130.496 168.28 130.272 168.008C131.856 166.456 133.344 164.056 134.24 161.624ZM132.544 165.752L133.696 164.6L133.712 164.616V176.264H132.544V165.752ZM137.568 169.496H143.504V170.616H137.568V169.496ZM143.12 169.496H143.344L143.536 169.416L144.384 169.944C143.248 171.272 141.616 173.096 140.224 174.552L139.248 173.944C140.608 172.536 142.272 170.664 143.12 169.624V169.496ZM139.168 161.656L140.336 161.816C139.632 164.632 138.56 168.456 137.856 170.616H136.56C137.376 168.344 138.496 164.44 139.168 161.656ZM135.568 163.432H144.512V164.536H135.568V163.432ZM134.64 166.456H145.248V167.576H134.64V166.456ZM137.488 173L138.352 172.28C139.904 173.192 141.68 174.504 142.576 175.4L141.68 176.296C140.816 175.368 139.008 173.944 137.488 173ZM147.328 162.264H160.656V176.296H159.456V163.368H148.496V176.296H147.328V162.264ZM148.016 174.536H160.16V175.608H148.016V174.536ZM151.984 170.552L152.496 169.816C153.776 170.072 155.408 170.6 156.304 171.016L155.792 171.816C154.912 171.384 153.28 170.824 151.984 170.552ZM152.624 163.688L153.616 164.024C152.704 165.496 151.248 166.872 149.904 167.768C149.728 167.576 149.312 167.224 149.072 167.048C150.432 166.232 151.808 164.984 152.624 163.688ZM156.896 164.952H157.104L157.296 164.904L157.968 165.32C156.32 167.96 152.592 169.704 149.344 170.456C149.232 170.168 148.992 169.688 148.784 169.464C151.92 168.856 155.52 167.272 156.896 165.128V164.952ZM151.92 165.832C153.328 167.528 156.256 168.824 159.168 169.352C158.944 169.576 158.64 169.976 158.496 170.264C155.568 169.64 152.608 168.168 151.024 166.248L151.92 165.832ZM152.256 164.952H157.248V165.896H151.616L152.256 164.952ZM150.4 172.584L150.96 171.752C153.12 172.008 155.872 172.616 157.44 173.144L156.896 174.04C155.376 173.496 152.608 172.856 150.4 172.584ZM165.504 165.704H176.448V166.952H165.504V165.704ZM170.672 161.592H171.936V166.28H170.672V161.592ZM164.864 161.976H166.112V167.32C166.112 170.504 165.84 173.8 163.536 176.312C163.344 176.04 162.896 175.592 162.608 175.384C164.64 173.112 164.864 170.152 164.864 167.32V161.976ZM165.456 169.496H173.968V176.296H172.672V170.744H165.456V169.496Z" fill="#333333"/>
</svg>
