<svg width="291" height="300" viewBox="0 0 291 300" fill="none" xmlns="http://www.w3.org/2000/svg">
<rect x="0.5" y="0.5" width="290" height="299" rx="3.5" fill="#EEEEEE" stroke="#999999" stroke-dasharray="4 4"/>
<path d="M131.328 143.264H144.656V157.296H143.456V144.368H132.496V157.296H131.328V143.264ZM132.016 155.536H144.16V156.608H132.016V155.536ZM135.984 151.552L136.496 150.816C137.776 151.072 139.408 151.6 140.304 152.016L139.792 152.816C138.912 152.384 137.28 151.824 135.984 151.552ZM136.624 144.688L137.616 145.024C136.704 146.496 135.248 147.872 133.904 148.768C133.728 148.576 133.312 148.224 133.072 148.048C134.432 147.232 135.808 145.984 136.624 144.688ZM140.896 145.952H141.104L141.296 145.904L141.968 146.32C140.32 148.96 136.592 150.704 133.344 151.456C133.232 151.168 132.992 150.688 132.784 150.464C135.92 149.856 139.52 148.272 140.896 146.128V145.952ZM135.92 146.832C137.328 148.528 140.256 149.824 143.168 150.352C142.944 150.576 142.64 150.976 142.496 151.264C139.568 150.64 136.608 149.168 135.024 147.248L135.92 146.832ZM136.256 145.952H141.248V146.896H135.616L136.256 145.952ZM134.4 153.584L134.96 152.752C137.12 153.008 139.872 153.616 141.44 154.144L140.896 155.04C139.376 154.496 136.608 153.856 134.4 153.584ZM149.504 146.704H160.448V147.952H149.504V146.704ZM154.672 142.592H155.936V147.28H154.672V142.592ZM148.864 142.976H150.112V148.32C150.112 151.504 149.84 154.8 147.536 157.312C147.344 157.04 146.896 156.592 146.608 156.384C148.64 154.112 148.864 151.152 148.864 148.32V142.976ZM149.456 150.496H157.968V157.296H156.672V151.744H149.456V150.496Z" fill="#333333"/>
</svg>
