<svg width="103" height="170" viewBox="0 0 103 170" fill="none" xmlns="http://www.w3.org/2000/svg">
<path d="M16.9 163.66V165.32H25V163.66H16.9ZM16.9 160.96V162.6H25V160.96H16.9ZM15.42 159.88H26.54V166.4H15.42V159.88ZM12.14 153.76H29.88V155.08H12.14V153.76ZM20.18 151.2H21.68V159.26H20.18V151.2ZM19.32 154.14L20.58 154.64C18.78 157.22 15.62 159.56 12.68 160.72C12.46 160.36 12.02 159.82 11.7 159.52C14.58 158.54 17.72 156.38 19.32 154.14ZM22.5 154.16C24.12 156.34 27.32 158.4 30.28 159.34C29.94 159.62 29.5 160.18 29.28 160.58C26.3 159.46 23.1 157.16 21.28 154.64L22.5 154.16ZM12.46 167.62H29.6V168.96H12.46V167.62ZM32.04 158.46H49.98V159.9H32.04V158.46ZM33.28 152.54H48.82V153.98H33.28V152.54ZM41.22 160.72H42.78V167.1C42.78 167.78 42.98 167.92 44.04 167.92C44.5 167.92 46.94 167.92 47.58 167.92C48.58 167.92 48.72 167.48 48.84 164.72C49.2 165 49.88 165.26 50.3 165.34C50.08 168.56 49.62 169.4 47.68 169.4C47.22 169.4 44.32 169.4 43.88 169.4C41.8 169.4 41.22 168.9 41.22 167.1V160.72ZM39.96 153.12H41.48C41.34 160.84 41.14 166.92 32.76 169.66C32.58 169.26 32.14 168.7 31.8 168.38C39.86 165.92 39.86 160.34 39.96 153.12ZM60.02 159.32L61.14 158.52C63.18 160.28 65.78 162.78 67.06 164.34L65.82 165.3C64.62 163.72 62.06 161.16 60.02 159.32ZM60.24 151.2H61.78V155.12C61.78 158.32 61.2 162.54 56.04 165.56C55.84 165.24 55.32 164.7 54.98 164.44C59.98 161.74 60.24 157.88 60.24 155.12V151.2ZM52.96 154.62H68.26V156.1H54.46V169.64H52.96V154.62ZM67.58 154.62H69.06V167.62C69.06 168.6 68.82 169.08 68.14 169.34C67.44 169.58 66.2 169.6 64.4 169.6C64.34 169.18 64.1 168.48 63.9 168.06C65.32 168.12 66.68 168.12 67.08 168.1C67.46 168.08 67.58 167.96 67.58 167.62V154.62ZM77.62 155.38L79.06 155.84C77.74 157.6 75.7 159.26 73.88 160.32C73.66 160.02 73.12 159.42 72.8 159.14C74.6 158.24 76.48 156.84 77.62 155.38ZM82.72 156.22L83.74 155.36C85.58 156.42 87.88 158.08 89.02 159.22L87.9 160.24C86.82 159.08 84.58 157.38 82.72 156.22ZM81.02 158.98C79.38 161.14 76.1 163.7 72.76 165.32C72.58 164.96 72.2 164.4 71.9 164.08C75.28 162.54 78.6 159.88 80.18 157.6H81.68C83.82 160.16 87.24 162.54 90.32 163.8C89.98 164.16 89.62 164.72 89.38 165.14C86.4 163.74 82.88 161.24 81.02 158.98ZM75.48 162.9H86.56V169.54H85.04V164.24H76.94V169.62H75.48V162.9ZM76.18 167.6H85.84V168.94H76.18V167.6ZM80.18 151.2H81.72V153.82H80.18V151.2ZM72.64 153.06H89.34V156.7H87.82V154.42H74.12V156.7H72.64V153.06Z" fill="#BBBBBB"/>
<path d="M21 41L31 45L21 49" stroke="#DDDDDD" stroke-width="2" stroke-linecap="round" stroke-linejoin="round"/>
<path d="M54 41L44 45L54 49" stroke="#DDDDDD" stroke-width="2" stroke-linecap="round" stroke-linejoin="round"/>
<rect x="74.3909" y="95.9605" width="16" height="21.5236" rx="1" transform="rotate(-41.3997 74.3909 95.9605)" stroke="#DDDDDD" stroke-width="2"/>
<rect x="62.4114" y="79.3471" width="12" height="20" rx="1" transform="rotate(-41.3997 62.4114 79.3471)" stroke="#DDDDDD" stroke-width="2"/>
<path fill-rule="evenodd" clip-rule="evenodd" d="M61.4407 9.45083C55.4236 5.98352 48.4434 4 41 4C18.3563 4 0 22.3563 0 45C0 67.6437 18.3563 86 41 86C63.6437 86 82 67.6437 82 45C82 38.4088 80.4447 32.1808 77.681 26.6631C77.378 27.4451 76.991 28.1927 76.5285 28.8911C78.7584 33.8018 80 39.2561 80 45C80 66.5391 62.5391 84 41 84C19.4609 84 2 66.5391 2 45C2 23.4609 19.4609 6 41 6C48.0772 6 54.7086 7.8833 60.4266 11.1748L61.4407 9.45083ZM57.3836 16.3478C52.5562 13.5815 46.9628 12 41 12C22.7746 12 8 26.7746 8 45C8 63.2254 22.7746 78 41 78C59.2254 78 74 63.2254 74 45C74 40.7622 73.2012 36.711 71.7459 32.9887C71.1463 33.2609 70.5151 33.4835 69.8563 33.6497C71.24 37.1648 72 40.9936 72 45C72 62.1208 58.1208 76 41 76C23.8792 76 10 62.1208 10 45C10 27.8792 23.8792 14 41 14C46.6272 14 51.9041 15.4993 56.4533 18.1203C56.6489 17.662 56.8775 17.2082 57.1404 16.7613L57.3836 16.3478Z" fill="#DDDDDD"/>
<path d="M67 1.73405L76.8276 15.6565C81.971 22.943 76.76 33 67.841 33H66.1591C57.24 33 52.029 22.943 57.1724 15.6565L67 1.73405L66.183 1.15737L67 1.73405Z" stroke="#DDDDDD" stroke-width="2" stroke-linejoin="round"/>
<path d="M74 21C74.5 24 72.8 26.6 70 27" stroke="#DDDDDD" stroke-width="2" stroke-linecap="round" stroke-linejoin="round"/>
</svg>
