<svg width="200" height="200" viewBox="0 0 200 200" fill="none" xmlns="http://www.w3.org/2000/svg">
<g clip-path="url(#clip0_1_2495)">
<path d="M192.962 99.996C196.051 96.3991 198.216 92.103 199.268 87.4802C200.321 82.8575 200.229 78.0477 199.002 73.4682C197.775 68.8887 195.449 64.6778 192.226 61.2008C189.003 57.7237 184.98 55.0855 180.507 53.5151C181.383 48.8556 181.11 44.0526 179.71 39.5227C178.31 34.9929 175.825 30.8731 172.473 27.5207C169.12 24.1684 165 21.6847 160.47 20.2852C155.94 18.8857 151.137 18.6127 146.477 19.4898C144.908 15.0154 142.27 10.9916 138.793 7.76777C135.316 4.54397 131.105 2.21762 126.525 0.990701C121.944 -0.236223 117.134 -0.326636 112.511 0.727313C107.888 1.78126 103.592 3.94771 99.9963 7.03857C96.3995 3.94984 92.1033 1.78534 87.4805 0.732848C82.8578 -0.319644 78.048 -0.22834 73.4685 0.998835C68.889 2.22601 64.6781 4.55199 61.201 7.77501C57.724 10.998 55.0858 15.0207 53.5154 19.4941C48.8562 18.6185 44.0537 18.8927 39.5244 20.2931C34.9952 21.6936 30.876 24.1779 27.5242 27.5305C24.1724 30.8832 21.6891 35.003 20.2899 39.5326C18.8906 44.0622 18.6176 48.8648 19.4944 53.5238C15.021 55.0942 10.9983 57.7324 7.77529 61.2094C4.55227 64.6865 2.22628 68.8974 0.999101 73.4769C-0.228074 78.0564 -0.319391 82.8661 0.733101 87.4889C1.78559 92.1117 3.95013 96.4078 7.03887 100.005C3.94919 103.601 1.78399 107.898 0.731196 112.521C-0.321595 117.144 -0.230199 121.955 0.997514 126.535C2.22523 131.115 4.55212 135.326 7.77624 138.802C11.0004 142.279 15.0243 144.916 19.4988 146.486C18.6211 151.145 18.8939 155.948 20.2933 160.477C21.6927 165.007 24.1766 169.127 27.5293 172.479C30.8819 175.832 35.0021 178.315 39.5321 179.714C44.0621 181.113 48.8651 181.385 53.5241 180.507C55.0945 184.98 57.7327 189.003 61.2097 192.226C64.6868 195.449 68.8977 197.775 73.4772 199.002C78.0566 200.229 82.8664 200.32 87.4892 199.268C92.1119 198.215 96.4081 196.051 100.005 192.962C103.602 196.052 107.898 198.217 112.521 199.27C117.145 200.323 121.955 200.231 126.535 199.003C131.115 197.776 135.326 195.449 138.803 192.225C142.279 189.001 144.917 184.977 146.486 180.502C151.145 181.38 155.948 181.107 160.478 179.707C165.008 178.308 169.128 175.824 172.48 172.471C175.833 169.119 178.317 164.999 179.716 160.469C181.116 155.939 181.389 151.136 180.511 146.477C184.985 144.907 189.008 142.269 192.231 138.792C195.454 135.314 197.78 131.103 199.007 126.523C200.234 121.944 200.325 117.134 199.271 112.511C198.218 107.888 196.052 103.592 192.962 99.996Z" fill="#FFE457"/>
<path d="M82.0491 138.169L54.2603 110.397C53.2057 109.341 52.6133 107.909 52.6133 106.416C52.6133 104.924 53.2057 103.492 54.2603 102.436L57.6364 99.0553C58.6927 98.0007 60.1244 97.4084 61.617 97.4084C63.1097 97.4084 64.5414 98.0007 65.5977 99.0553L85.798 119.243L133.371 68.6878C134.395 67.6017 135.807 66.9661 137.299 66.9206C138.791 66.8751 140.24 67.4234 141.328 68.4451L144.795 71.7172C145.883 72.741 146.519 74.1548 146.564 75.6476C146.61 77.1405 146.061 78.5904 145.038 79.6786L90.1449 138.043C89.628 138.594 89.0057 139.035 88.3149 139.341C87.6241 139.646 86.8789 139.81 86.1236 139.821C85.3684 139.833 84.6185 139.693 83.9185 139.409C83.2185 139.125 82.5828 138.703 82.0491 138.169Z" fill="#333333"/>
</g>
<defs>
<clipPath id="clip0_1_2495">
<rect width="200" height="200" fill="white"/>
</clipPath>
</defs>
</svg>
